<svg xmlns="http://www.w3.org/2000/svg" width="146" height="24" fill="none"><path fill="#fff" d="M17.117 19.692c.287-.432.533-.893.733-1.377-.694.95-1.53 1.47-2.391 1.391-1.086-.102-2.377-1.884-1.375-4.787-2.069.258-3.027 5.016-1.638 7.532l.488-.061a5.6 5.6 0 0 0 2.042-.659 6.208 6.208 0 0 0 2.141-2.04ZM11.564 1.573l-.469.061a5.377 5.377 0 0 0-2.01.677 6.601 6.601 0 0 0-2.159 2.122c-.192.29-.362.597-.508.916.636-.732 1.357-1.125 2.114-1.051 1.091.102 2.383 1.884 1.374 4.785 2.07-.258 3.033-4.992 1.658-7.51Z"/><path fill="#fff" d="M23.214 7.544c-1.248-3.194-3.64-5.742-6.655-7.09a.08.08 0 0 0-.053-.02A9.71 9.71 0 0 0 15.298 0c1.736 1.045 3.58 5.114 4.177 8.592.131.763.211 1.536.238 2.311v.013c.018.409.031.808.031 1.227a19.315 19.315 0 0 1-.494 4.5 11.15 11.15 0 0 1-1.472 3.534 7.09 7.09 0 0 1-2.428 2.3 6.279 6.279 0 0 1-2.327.754c.173.174.369.32.582.433.34.173.715.256 1.092.244 1.805 0 4.433-1.485 6.335-3.695 2.909-3.355 3.77-8.553 2.182-12.669ZM5.082 17.74c-.013-.04-.02-.067-.033-.102-.102-.32-.194-.65-.275-.99-.082-.34-.161-.692-.22-1.05l-.038-.204c-.02-.143-.045-.278-.058-.422a4.53 4.53 0 0 1-.064-.48c-.064-.502-.1-1.006-.109-1.512a4.018 4.018 0 0 1-.013-.41v-.445a19.481 19.481 0 0 1 .502-4.556 11.64 11.64 0 0 1 1.483-3.613 7.503 7.503 0 0 1 2.43-2.385 6.101 6.101 0 0 1 2.306-.78 2.724 2.724 0 0 0-.603-.46A2.295 2.295 0 0 0 9.304.094c-1.788 0-4.39 1.457-6.29 3.625a.123.123 0 0 1-.028.029.177.177 0 0 1-.031.04.201.201 0 0 0-.033.04c-.109.128-.211.257-.314.386-.297.394-.574.804-.83 1.227-.14.232-.27.469-.388.706-.056.115-.114.23-.172.358-1.433 3.085-1.633 6.827-.43 9.95 1.249 3.202 3.645 5.755 6.668 7.105.058.027.116.047.168.076.053.028.12.047.173.067l.07.027c.271.102.552.19.836.27-1.354-.81-2.78-3.474-3.62-6.26Z"/><path fill="#fff" fill-rule="evenodd" d="M129.708 20.976h-1.592l7.581-8.87L128.781 3h3.601l5.228 6.898L143.492 3h1.604l-6.761 7.896 7.664 10.08h-3.624l-5.942-7.872-6.725 7.872ZM45.605 3.012v13.143h-.13L34.864 3.012H32v17.964h1.367V6.787h.106l11.55 14.19h1.925V3.011h-1.343Zm9.803 17.252c1.153.475 2.4.712 3.731.712.891 0 1.747-.107 2.555-.32a9.648 9.648 0 0 0 2.281-.914 9.013 9.013 0 0 0 1.913-1.425 9.544 9.544 0 0 0 1.474-1.84 8.87 8.87 0 0 0 .95-2.174 8.473 8.473 0 0 0 .333-2.398 8.31 8.31 0 0 0-.333-2.375 8.357 8.357 0 0 0-.95-2.125A9.323 9.323 0 0 0 65.888 5.6a8.854 8.854 0 0 0-1.913-1.389 10.59 10.59 0 0 0-2.281-.89A9.974 9.974 0 0 0 59.139 3c-.891 0-1.747.107-2.555.32-.808.214-1.568.511-2.27.891a9.735 9.735 0 0 0-1.912 1.39 8.908 8.908 0 0 0-1.474 1.804 8.765 8.765 0 0 0-.938 2.125 8.31 8.31 0 0 0-.333 2.375c0 1.247.25 2.422.737 3.527a9.074 9.074 0 0 0 2.008 2.885 9.442 9.442 0 0 0 3.006 1.947Zm6.345-.76c-.76.416-1.628.617-2.614.617-.998 0-1.877-.201-2.638-.617-.748-.416-1.378-.997-1.901-1.722-.523-.724-.903-1.602-1.165-2.6-.26-.997-.392-2.101-.392-3.289 0-1.187.131-2.268.392-3.253.262-.974.654-1.829 1.165-2.541a5.317 5.317 0 0 1 1.901-1.662c.76-.392 1.64-.594 2.638-.594.986 0 1.854.202 2.614.594.76.392 1.39.95 1.913 1.662.523.712.915 1.555 1.177 2.54.26.986.392 2.067.392 3.254 0 1.188-.131 2.292-.392 3.29-.262.997-.654 1.863-1.177 2.6a5.632 5.632 0 0 1-1.913 1.721Zm9.601-16.492h7.249c.962 0 1.841.107 2.637.32.796.214 1.486.51 2.068.903.57.392 1.022.855 1.33 1.4.322.547.476 1.14.476 1.794 0 .498-.048.938-.154 1.33a2.795 2.795 0 0 1-.535 1.08c-.25.332-.594.641-1.01.938-.416.297-.95.594-1.592.902v.06a6.305 6.305 0 0 1 1.734.51c.511.25.95.558 1.32.926.368.38.653.82.843 1.318.202.499.297 1.045.297 1.65 0 .677-.143 1.319-.44 1.9a4.601 4.601 0 0 1-1.26 1.544c-.546.44-1.211.784-1.983 1.033-.773.25-1.64.38-2.603.38h-8.4V3.012h.023Zm3.018 8.085h3.85c.606 0 1.14-.083 1.616-.26a3.207 3.207 0 0 0 1.188-.713c.321-.309.57-.665.737-1.08a3.67 3.67 0 0 0 .25-1.366 3.29 3.29 0 0 0-.297-1.425 2.928 2.928 0 0 0-.927-1.104c-.416-.309-.95-.546-1.604-.7-.642-.167-1.426-.25-2.33-.25H74.36v6.899h.012Zm0 8.573h3.268c.88 0 1.64-.083 2.281-.25.642-.165 1.177-.403 1.604-.7a2.84 2.84 0 0 0 .94-1.092c.201-.427.308-.89.308-1.401a4.66 4.66 0 0 0-.273-1.591 3.027 3.027 0 0 0-.891-1.27c-.416-.357-.95-.642-1.616-.844-.666-.202-1.486-.308-2.448-.308h-3.173v7.456Zm18.49-16.658h-3.03v17.976h3.03V3.012Zm18.369 0v1.163h-6.512v16.813h-3.03V4.175h-6.511V3.012h16.053Zm14.829 1.163V3.012h-12.5v17.964h12.5v-1.163h-9.482v-8.05h6.345v-1.164h-6.345V4.175h9.482Z" clip-rule="evenodd"/></svg>